<?xml version="1.0" encoding="utf-8"?>
<!-- Generator: Adobe Illustrator 25.0.1, SVG Export Plug-In . SVG Version: 6.00 Build 0)  -->
<svg version="1.0" id="katman_1" xmlns="http://www.w3.org/2000/svg" xmlns:xlink="http://www.w3.org/1999/xlink" x="0px" y="0px"
	 viewBox="0 0 560 400" style="enable-background:new 0 0 560 400;" xml:space="preserve" height="800" width="1200">
<style type="text/css">
	.st0{fill-rule:evenodd;clip-rule:evenodd;fill:#42B549;}
</style>
<path class="st0" d="M293.9,217.5c-4.3,4.4-9.5,6.6-15.6,6.6c-4.9,0-9-1-13.2-3.5v-10.1c3.4,2.3,7.7,4.5,11.9,4.5
	c8.8,0,14-6.1,14-14.6c0-8.6-5.4-14.8-14.2-14.8c-3.9,0-7.1,1.4-9.6,4.2c-2.7,3.1-4,7.5-4,13.3v40h-0.7c-4.8,0-8.8-3.9-8.8-8.8
	v-32.7c0-13.9,8.5-25.1,23-25.1c7.2,0,13,2.5,17.5,7.4c4.2,4.6,6.2,10.5,6.2,17.5C300.4,207.7,298.2,213.1,293.9,217.5z M396,217.2
	c-4.3,4.7-9.9,7-16.7,7c-7.1,0-12.9-2.5-17.4-7.4c-4.2-4.7-6.2-10.5-6.2-17.5c0-12.4,9.5-22.7,22.1-22.7c4.8,0,9,1,13.3,3.4v10.2
	c-3.4-2.3-7.7-4.5-11.9-4.5c-8.8,0-14,6.1-14,14.6c0,8.5,5.5,14.8,14.2,14.8c3.9,0,7.2-1.5,9.7-4.4c2.6-2.9,3.9-7.3,3.9-13.1v-31.8
	c0-4.9,3.9-8.8,8.8-8.8h0.7V199C402.5,206.4,400.3,212.5,396,217.2z M422.6,172c-1,1.1-2.4,1.6-4.1,1.6c-3.2,0-5.6-2.4-5.6-5.6
	c0-3.3,2.3-5.5,5.6-5.5c3.2,0,5.6,2.3,5.6,5.5C424,169.6,423.6,171,422.6,172z M470.6,197.5c0-3.7-1.4-6.7-4.2-8.9
	c-2.5-2-5.7-3-9.6-3c-8.5,0-14,6.7-14,14.9c0,7.9,5.8,14.5,13.9,14.5c5.6,0,8.7-3.3,11.9-7.4v11.9c-1.6,1.2-3.5,2.6-5.5,3.4
	c-2,0.9-4.5,1.3-7.3,1.3c-13.6,0-22.5-11.3-22.5-24.3c0-6.7,2.1-12.2,6.2-16.5c4.4-4.6,10.2-6.8,17.3-6.8c13.5,0,23.1,7.8,23.1,21.8
	v24.9h-0.7c-4.8,0-8.8-3.9-8.8-8.8L470.6,197.5z M341.4,194.9c-1.2-3.7-2.7-5.5-6.1-7.4c-8.2-4.6-16.2-0.7-20,7.4L341.4,194.9z
	 M334.2,224c-6,1.3-11.9,0.3-17.7-2.9c-5.6-3.1-9.4-7.8-11.3-14c-3.8-12.5,4-26.4,16.6-29.8c6.2-1.7,12.2-0.9,17.9,2.3
	c9.4,5.3,12.9,13.5,12.3,24l-38-0.1c0.6,4.3,3.2,7.7,7,9.7c3.8,2.1,7.3,2.6,10.5,1.6c3.6-1.1,6.5-4.1,8.9-6.8l7.7,5.7
	C344.9,219.3,340.6,222.6,334.2,224L334.2,224z M413.8,177.5h9.4v45.7h-0.7c-4.8,0-8.8-3.9-8.8-8.8V177.5z M93.8,223.2
	c-9.2,0-13.8-6.3-13.8-15.1v-33.3c0-4.9,3.9-8.8,8.8-8.8h0.7v11.4h15.9v9.1H89.4v22.7c0,3.9,1.7,4.9,5.4,4.9h10.5v9.1H93.8z
	 M148.6,217.4c-4.7,4.5-10.3,6.7-16.8,6.7c-6.4,0-12-2.2-16.7-6.7c-4.7-4.5-7-10.2-7-17.1c0-13.4,10.2-23.8,23.7-23.8
	c6.5,0,12,2.3,16.7,6.8c4.7,4.5,7.1,10.2,7.1,17C155.6,207.2,153.3,212.9,148.6,217.4z M192.7,188.5c-1.4,2.3-2.5,4-3.2,5
	c-0.8,1.1-1.7,2-2.5,2.6c6.6,2.1,9,6.7,9,13.4v13.7h-0.7c-4.8,0-8.8-3.9-8.8-8.8v-4c0-4.4-2-7.4-6.6-7.4h-8.6v20.2h-0.7
	c-4.8,0-8.8-3.9-8.8-8.8v-48.7c0-4.9,3.9-8.8,8.8-8.8h0.7v37h2.8c3.1,0,5.1-1.1,6.2-3l7.9-13.4l10.7,0L192.7,188.5z M241.4,217.4
	c-4.7,4.5-10.3,6.7-16.8,6.7c-6.4,0-12-2.2-16.7-6.7c-4.7-4.5-7-10.2-7-17.1c0-13.4,10.2-23.8,23.7-23.8c6.4,0,12,2.3,16.7,6.8
	c4.7,4.5,7.1,10.2,7.1,17C248.4,207.2,246.1,212.9,241.4,217.4z M234.6,189.7c-2.6-2.7-5.9-4.1-10-4.1c-8.7,0-13.9,6.3-13.9,14.7
	c0,8.3,5.3,14.7,13.9,14.7c8.6,0,13.9-6.5,13.9-14.7C238.5,195.9,237.2,192.4,234.6,189.7L234.6,189.7z M141.8,189.7
	c-2.6-2.7-5.9-4.1-10-4.1c-8.7,0-13.9,6.3-13.9,14.7c0,8.3,5.3,14.7,13.9,14.7c8.6,0,13.9-6.5,13.9-14.7
	C145.7,195.9,144.4,192.4,141.8,189.7z"/>
</svg>
